<svg width="430" height="909" viewBox="0 0 430 909" fill="none" xmlns="http://www.w3.org/2000/svg">
<g clip-path="url(#clip0_33_6760)">
<rect width="430" height="909" rx="26" fill="#0A0E1A"/>
<path opacity="0.58" d="M518 -5C518 54.6467 472.333 103 416 103C359.667 103 314 54.6467 314 -5C314 -64.6468 359.667 -113 416 -113C472.333 -113 518 -64.6468 518 -5Z" fill="url(#paint0_radial_33_6760)" fill-opacity="0.8"/>
<path opacity="0.58" d="M156 -19.5C156 34.9 93.7676 79 17 79C-59.7676 79 -122 34.9 -122 -19.5C-122 -73.9 -59.7676 -118 17 -118C93.7676 -118 156 -73.9 156 -19.5Z" fill="url(#paint1_radial_33_6760)" fill-opacity="0.8"/>
<path opacity="0.58" d="M77 383C77 431.049 36.2579 470 -14 470C-64.2579 470 -105 431.049 -105 383C-105 334.951 -64.2579 296 -14 296C36.2579 296 77 334.951 77 383Z" fill="url(#paint2_radial_33_6760)" fill-opacity="0.8"/>
<ellipse opacity="0.58" cx="449" cy="504" rx="97" ry="77" fill="url(#paint3_radial_33_6760)"/>
<path opacity="0.58" d="M492 816.5C492 847.152 460.66 872 422 872C383.34 872 352 847.152 352 816.5C352 785.848 383.34 761 422 761C460.66 761 492 785.848 492 816.5Z" fill="url(#paint4_radial_33_6760)" fill-opacity="0.8"/>
<g opacity="0.35">
<ellipse cx="363.893" cy="137.032" rx="6.4328" ry="6.48635" fill="white" fill-opacity="0.2"/>
<path fill-rule="evenodd" clip-rule="evenodd" d="M363.894 144.634V144.634C363.605 144.634 363.329 144.518 363.124 144.313C362.92 144.107 362.806 143.828 362.806 143.537V130.528C362.806 130.237 362.92 129.958 363.124 129.752C363.329 129.547 363.605 129.431 363.894 129.432V129.432C364.494 129.432 364.981 129.922 364.981 130.528V143.537C364.981 144.143 364.494 144.634 363.894 144.634V144.634Z" fill="white" fill-opacity="0.298039"/>
<path fill-rule="evenodd" clip-rule="evenodd" d="M371.431 137.033V137.033C371.431 137.324 371.317 137.603 371.113 137.808C370.909 138.014 370.632 138.13 370.344 138.13L357.442 138.13C357.153 138.13 356.876 138.014 356.673 137.808C356.469 137.603 356.354 137.324 356.354 137.033V137.033C356.354 136.427 356.841 135.937 357.442 135.937H370.344C370.944 135.937 371.431 136.427 371.431 137.033V137.033Z" fill="white" fill-opacity="0.298039"/>
<path fill-rule="evenodd" clip-rule="evenodd" d="M368.457 137.033V137.033C368.457 137.639 367.969 138.13 367.368 138.13L360.417 138.13C359.816 138.13 359.329 137.639 359.329 137.033V137.033C359.33 136.427 359.817 135.937 360.417 135.937H367.368C367.657 135.936 367.934 136.052 368.138 136.257C368.342 136.463 368.457 136.742 368.457 137.033V137.033Z" fill="white"/>
<path fill-rule="evenodd" clip-rule="evenodd" d="M363.894 141.634V141.634C363.605 141.634 363.328 141.519 363.124 141.313C362.92 141.107 362.805 140.828 362.806 140.537V133.528C362.806 132.922 363.293 132.431 363.894 132.431V132.431C364.494 132.431 364.981 132.922 364.981 133.528V140.537C364.981 140.828 364.867 141.107 364.663 141.313C364.459 141.518 364.182 141.634 363.894 141.634V141.634Z" fill="white"/>
<ellipse cx="71.5851" cy="183.526" rx="6.4328" ry="6.48635" fill="white" fill-opacity="0.2"/>
<path fill-rule="evenodd" clip-rule="evenodd" d="M71.588 191.127V191.127C70.9877 191.127 70.501 190.636 70.501 190.031V177.021C70.501 176.416 70.9877 175.925 71.588 175.925V175.925C71.8765 175.925 72.1533 176.04 72.3574 176.246C72.5615 176.452 72.6762 176.73 72.6762 177.021V190.031C72.6762 190.322 72.5615 190.601 72.3574 190.807C72.1533 191.012 71.8765 191.127 71.588 191.127V191.127Z" fill="white" fill-opacity="0.298039"/>
<path fill-rule="evenodd" clip-rule="evenodd" d="M79.1233 183.526V183.526C79.1235 183.817 79.009 184.097 78.8049 184.302C78.6007 184.508 78.3238 184.624 78.0351 184.623L65.1339 184.624C64.8454 184.623 64.5688 184.508 64.3648 184.302C64.161 184.096 64.0466 183.817 64.0469 183.526V183.526C64.0469 182.921 64.5336 182.43 65.1339 182.43H78.035C78.3235 182.43 78.6003 182.545 78.8045 182.751C79.0086 182.956 79.1233 183.235 79.1233 183.526V183.526Z" fill="white" fill-opacity="0.298039"/>
<path fill-rule="evenodd" clip-rule="evenodd" d="M76.1488 183.526V183.526C76.149 183.817 76.0347 184.096 75.8307 184.302C75.6269 184.508 75.3502 184.624 75.0617 184.623L68.1106 184.624C67.5096 184.623 67.0225 184.132 67.0225 183.526V183.526C67.023 182.921 67.51 182.43 68.1105 182.43H75.0617C75.6621 182.43 76.1488 182.921 76.1488 183.526V183.526Z" fill="white"/>
<path fill-rule="evenodd" clip-rule="evenodd" d="M71.588 188.128V188.128C70.9875 188.127 70.501 187.636 70.501 187.031V180.022C70.5007 179.731 70.6151 179.452 70.819 179.246C71.0229 179.04 71.2995 178.924 71.588 178.924V178.924C71.8767 178.924 72.1536 179.04 72.3578 179.245C72.562 179.451 72.6765 179.73 72.6762 180.022V187.031C72.6762 187.636 72.189 188.128 71.588 188.128V188.128Z" fill="white"/>
<path fill-rule="evenodd" clip-rule="evenodd" d="M41.8262 127.502C41.8259 126.537 42.6018 125.754 43.5593 125.754C44.5169 125.754 45.2934 126.536 45.2937 127.501C45.294 128.467 44.5181 129.25 43.5606 129.25C43.1006 129.25 42.6595 129.066 42.3342 128.738C42.009 128.411 41.8262 127.966 41.8262 127.502H41.8262Z" fill="#FFEDB2"/>
<path fill-rule="evenodd" clip-rule="evenodd" d="M112.365 194.458C112.366 193.493 113.142 192.711 114.1 192.711C115.057 192.712 115.833 193.495 115.833 194.46C115.832 195.425 115.056 196.208 114.099 196.208C113.639 196.208 113.198 196.023 112.873 195.695C112.547 195.367 112.365 194.922 112.365 194.458H112.365Z" fill="#FFEDB2"/>
<path fill-rule="evenodd" clip-rule="evenodd" d="M402.852 180.977C402.852 180.269 403.274 179.632 403.922 179.361C404.57 179.091 405.316 179.241 405.812 179.741C406.307 180.241 406.455 180.993 406.187 181.646C405.918 182.3 405.286 182.725 404.585 182.725C403.627 182.725 402.852 181.942 402.852 180.977H402.852Z" fill="#FFEDB2"/>
<path fill-rule="evenodd" clip-rule="evenodd" d="M287.093 129.432C287.092 128.725 287.515 128.088 288.162 127.817C288.81 127.546 289.556 127.695 290.052 128.195C290.548 128.695 290.697 129.447 290.428 130.1C290.16 130.754 289.528 131.18 288.827 131.18C288.367 131.18 287.926 130.996 287.601 130.668C287.275 130.34 287.093 129.896 287.093 129.432V129.432Z" fill="#FFEDB2"/>
<path fill-rule="evenodd" clip-rule="evenodd" d="M279.844 174.318C279.843 173.611 280.265 172.973 280.914 172.701C281.562 172.43 282.308 172.58 282.805 173.08C283.301 173.58 283.45 174.332 283.182 174.986C282.913 175.64 282.281 176.067 281.579 176.067C280.621 176.067 279.844 175.284 279.844 174.318H279.844Z" fill="#FFEDB2"/>
<path fill-rule="evenodd" clip-rule="evenodd" d="M384.083 125.749C384.083 125.042 384.506 124.404 385.154 124.133C385.802 123.862 386.549 124.012 387.045 124.512C387.541 125.013 387.689 125.765 387.421 126.419C387.152 127.073 386.52 127.499 385.818 127.499C384.86 127.499 384.083 126.716 384.083 125.749V125.749Z" fill="#FFEDB2"/>
<path fill-rule="evenodd" clip-rule="evenodd" d="M189.533 141.103C189.533 140.395 189.956 139.757 190.604 139.487C191.253 139.216 191.999 139.366 192.495 139.866C192.991 140.366 193.139 141.119 192.871 141.772C192.602 142.426 191.97 142.852 191.268 142.852C190.808 142.853 190.366 142.668 190.041 142.34C189.716 142.012 189.533 141.567 189.533 141.103V141.103Z" fill="#FFEDB2"/>
<path fill-rule="evenodd" clip-rule="evenodd" d="M24 162.142C24.0003 161.176 24.7768 160.394 25.7343 160.394C26.6918 160.394 27.4678 161.177 27.4675 162.143C27.4672 163.108 26.6906 163.891 25.7332 163.89C24.7759 163.89 24 163.107 24 162.142V162.142Z" fill="#FFEDB2"/>
</g>
<g opacity="0.35">
<ellipse cx="382.282" cy="847.032" rx="7.23506" ry="6.48635" fill="white" fill-opacity="0.2"/>
<path fill-rule="evenodd" clip-rule="evenodd" d="M382.283 854.634V854.634C381.959 854.634 381.648 854.518 381.418 854.313C381.189 854.107 381.06 853.828 381.06 853.537V840.528C381.06 840.237 381.189 839.958 381.418 839.752C381.648 839.547 381.959 839.431 382.283 839.432V839.432C382.959 839.432 383.506 839.922 383.506 840.528V853.537C383.506 854.143 382.959 854.634 382.283 854.634V854.634Z" fill="white" fill-opacity="0.298039"/>
<path fill-rule="evenodd" clip-rule="evenodd" d="M390.76 847.033V847.033C390.761 847.324 390.632 847.603 390.403 847.808C390.173 848.014 389.862 848.13 389.538 848.13L375.026 848.13C374.702 848.13 374.391 848.014 374.161 847.808C373.932 847.603 373.803 847.324 373.804 847.033V847.033C373.804 846.427 374.351 845.937 375.026 845.937H389.538C390.213 845.937 390.76 846.427 390.76 847.033V847.033Z" fill="white" fill-opacity="0.298039"/>
<path fill-rule="evenodd" clip-rule="evenodd" d="M387.415 847.033V847.033C387.415 847.639 386.867 848.13 386.191 848.13L378.373 848.13C377.697 848.13 377.149 847.639 377.149 847.033V847.033C377.15 846.427 377.698 845.937 378.373 845.937H386.191C386.516 845.936 386.827 846.052 387.057 846.257C387.286 846.463 387.415 846.742 387.415 847.033V847.033Z" fill="white"/>
<path fill-rule="evenodd" clip-rule="evenodd" d="M382.283 851.634V851.634C381.959 851.634 381.647 851.519 381.418 851.313C381.188 851.107 381.059 850.828 381.06 850.537V843.528C381.06 842.922 381.607 842.431 382.283 842.431V842.431C382.959 842.431 383.506 842.922 383.506 843.528V850.537C383.506 850.828 383.378 851.107 383.148 851.313C382.919 851.518 382.608 851.634 382.283 851.634V851.634Z" fill="white"/>
<ellipse cx="53.5202" cy="893.526" rx="7.23506" ry="6.48635" fill="white" fill-opacity="0.2"/>
<path fill-rule="evenodd" clip-rule="evenodd" d="M53.5244 901.127V901.127C52.8491 901.127 52.3018 900.636 52.3018 900.031V887.021C52.3018 886.416 52.8491 885.925 53.5244 885.925V885.925C53.8488 885.925 54.1601 886.04 54.3897 886.246C54.6192 886.452 54.7482 886.73 54.7482 887.021V900.031C54.7482 900.322 54.6192 900.601 54.3897 900.807C54.1601 901.012 53.8488 901.127 53.5244 901.127V901.127Z" fill="white" fill-opacity="0.298039"/>
<path fill-rule="evenodd" clip-rule="evenodd" d="M61.9986 893.526V893.526C61.9989 893.817 61.8702 894.097 61.6405 894.302C61.4109 894.508 61.0995 894.624 60.7748 894.623L46.2646 894.624C45.9401 894.623 45.629 894.508 45.3996 894.302C45.1703 894.096 45.0417 893.817 45.042 893.526V893.526C45.042 892.921 45.5894 892.43 46.2646 892.43H60.7747C61.0991 892.43 61.4105 892.545 61.6401 892.751C61.8696 892.956 61.9986 893.235 61.9986 893.526V893.526Z" fill="white" fill-opacity="0.298039"/>
<path fill-rule="evenodd" clip-rule="evenodd" d="M58.6532 893.526V893.526C58.6535 893.817 58.5249 894.096 58.2955 894.302C58.0662 894.508 57.755 894.624 57.4305 894.623L49.6125 894.624C48.9366 894.623 48.3887 894.132 48.3887 893.526V893.526C48.3893 892.921 48.937 892.43 49.6124 892.43H57.4305C58.1058 892.43 58.6532 892.921 58.6532 893.526V893.526Z" fill="white"/>
<path fill-rule="evenodd" clip-rule="evenodd" d="M53.5244 898.128V898.128C52.8489 898.128 52.3018 897.637 52.3018 897.031V890.022C52.3014 889.731 52.4301 889.452 52.6594 889.246C52.8887 889.04 53.1999 888.925 53.5244 888.925V888.925C53.8491 888.925 54.1605 889.04 54.3902 889.246C54.6198 889.452 54.7485 889.731 54.7482 890.022V897.031C54.7482 897.637 54.2003 898.128 53.5244 898.128V898.128Z" fill="white"/>
<path fill-rule="evenodd" clip-rule="evenodd" d="M20.0489 837.502C20.0485 836.537 20.9212 835.754 21.9981 835.754C23.0751 835.754 23.9485 836.536 23.9489 837.501C23.9492 838.467 23.0765 839.25 21.9996 839.25C21.4822 839.25 20.9861 839.066 20.6202 838.738C20.2544 838.411 20.0488 837.966 20.0488 837.502H20.0489Z" fill="#FFEDB2"/>
<path fill-rule="evenodd" clip-rule="evenodd" d="M99.3857 904.458C99.3864 903.493 100.26 902.711 101.337 902.711C102.413 902.712 103.286 903.495 103.286 904.46C103.285 905.425 102.412 906.208 101.336 906.208C100.818 906.208 100.322 906.023 99.9564 905.695C99.5907 905.367 99.3856 904.922 99.3859 904.458H99.3857Z" fill="#FFEDB2"/>
<path fill-rule="evenodd" clip-rule="evenodd" d="M426.1 890.977C426.1 890.269 426.575 889.632 427.304 889.361C428.033 889.091 428.871 889.241 429.429 889.741C429.986 890.241 430.153 890.993 429.851 891.646C429.549 892.3 428.837 892.725 428.049 892.725C426.972 892.725 426.1 891.942 426.1 890.977H426.1Z" fill="#FFEDB2"/>
<path fill-rule="evenodd" clip-rule="evenodd" d="M295.904 839.432C295.904 838.725 296.379 838.088 297.107 837.817C297.836 837.546 298.675 837.695 299.233 838.195C299.79 838.695 299.958 839.447 299.656 840.1C299.354 840.754 298.644 841.18 297.855 841.18C297.338 841.18 296.841 840.996 296.476 840.668C296.11 840.34 295.904 839.896 295.904 839.432V839.432Z" fill="#FFEDB2"/>
<path fill-rule="evenodd" clip-rule="evenodd" d="M287.752 884.318C287.751 883.611 288.226 882.973 288.955 882.701C289.684 882.43 290.524 882.58 291.082 883.08C291.641 883.58 291.808 884.332 291.506 884.986C291.204 885.64 290.493 886.067 289.703 886.067C288.626 886.067 287.753 885.284 287.752 884.318H287.752Z" fill="#FFEDB2"/>
<path fill-rule="evenodd" clip-rule="evenodd" d="M404.991 835.749C404.991 835.042 405.466 834.404 406.196 834.133C406.925 833.862 407.764 834.012 408.322 834.512C408.88 835.013 409.047 835.765 408.745 836.419C408.443 837.073 407.732 837.499 406.942 837.499C405.865 837.499 404.991 836.716 404.991 835.749V835.749Z" fill="#FFEDB2"/>
<path fill-rule="evenodd" clip-rule="evenodd" d="M186.177 851.103C186.177 850.395 186.652 849.757 187.381 849.487C188.11 849.216 188.95 849.366 189.508 849.866C190.066 850.366 190.233 851.119 189.931 851.772C189.629 852.426 188.917 852.852 188.128 852.852C187.61 852.853 187.114 852.668 186.748 852.34C186.382 852.012 186.176 851.567 186.177 851.103V851.103Z" fill="#FFEDB2"/>
<path fill-rule="evenodd" clip-rule="evenodd" d="M0 872.142C0.000314861 871.176 0.873662 870.394 1.95057 870.394C3.02755 870.394 3.90027 871.177 3.89995 872.143C3.89956 873.108 3.02621 873.891 1.94931 873.89C0.872638 873.89 0 873.107 0 872.142V872.142Z" fill="#FFEDB2"/>
</g>
</g>
<defs>
<radialGradient id="paint0_radial_33_6760" cx="0" cy="0" r="1" gradientUnits="userSpaceOnUse" gradientTransform="translate(431.3 16.0266) rotate(90) scale(108 102)">
<stop stop-color="#70DB88"/>
<stop offset="1" stop-color="#000460" stop-opacity="0"/>
</radialGradient>
<radialGradient id="paint1_radial_33_6760" cx="0" cy="0" r="1" gradientUnits="userSpaceOnUse" gradientTransform="translate(37.85 -0.323007) rotate(90) scale(98.5 139)">
<stop stop-color="#70DB88"/>
<stop offset="1" stop-color="#000460" stop-opacity="0"/>
</radialGradient>
<radialGradient id="paint2_radial_33_6760" cx="0" cy="0" r="1" gradientUnits="userSpaceOnUse" gradientTransform="translate(-0.350013 399.938) rotate(90) scale(87 91)">
<stop stop-color="#70DB88"/>
<stop offset="1" stop-color="#000460" stop-opacity="0"/>
</radialGradient>
<radialGradient id="paint3_radial_33_6760" cx="0" cy="0" r="1" gradientUnits="userSpaceOnUse" gradientTransform="translate(449 504) rotate(90) scale(77 97)">
<stop stop-color="#70DB88"/>
<stop offset="1" stop-color="#000460" stop-opacity="0"/>
</radialGradient>
<radialGradient id="paint4_radial_33_6760" cx="0" cy="0" r="1" gradientUnits="userSpaceOnUse" gradientTransform="translate(432.5 827.305) rotate(90) scale(55.5 70)">
<stop stop-color="#70DB88"/>
<stop offset="1" stop-color="#000460" stop-opacity="0"/>
</radialGradient>
<clipPath id="clip0_33_6760">
<rect width="430" height="909" rx="26" fill="white"/>
</clipPath>
</defs>
</svg>
